<svg xmlns="http://www.w3.org/2000/svg" width="209.71" height="24" viewBox="0 0 209.71 24"><defs><style>.a{fill:#101010;}</style></defs><path class="a" d="M430.425,354.127H419.26v23.994h11.165a12,12,0,1,0,0-24Zm.032,17.789H425.6V360.559h4.853a5.679,5.679,0,1,1,0,11.358Z" transform="translate(-419.26 -354.125)"/><rect class="a" width="6.344" height="23.95" transform="translate(27.677 0.05)"/><path class="a" d="M527.2,369.584h4.668a5.754,5.754,0,0,1-6.949,1.853,5.672,5.672,0,0,1,2.28-10.871,5.8,5.8,0,0,1,4.018,1.594l4.484-4.383a12.127,12.127,0,0,0-15.214-1.421,11.9,11.9,0,0,0-4.39,14.518,12.067,12.067,0,0,0,23.176-4.605v-.893H527.221Z" transform="translate(-476.988 -354.239)"/><rect class="a" width="6.34" height="23.95" transform="translate(65.53 0.05)"/><path class="a" d="M205.076,8.995,195.224.12H192.36V24.066h6.376V11.808l6.34,5.683,6.312-5.718V24.066h6.372V.12h-2.864Z" transform="translate(-115.789 -0.07)"/><path class="a" d="M697.763,354.25a11.955,11.955,0,1,0,12.052,12A12,12,0,0,0,697.763,354.25Zm0,17.689a5.719,5.719,0,1,1,5.761-5.717A5.742,5.742,0,0,1,697.763,371.939Z" transform="translate(-579.64 -354.2)"/><path class="a" d="M766.7,369.584h4.664a5.753,5.753,0,0,1-6.95,1.852,5.672,5.672,0,0,1,2.286-10.87,5.787,5.787,0,0,1,4.018,1.594l4.479-4.383a12.127,12.127,0,0,0-15.214-1.421,11.9,11.9,0,0,0-4.391,14.518,12.067,12.067,0,0,0,23.176-4.605v-.893H766.711Z" transform="translate(-621.14 -354.239)"/><path class="a" d="M834.314,368.648a3.154,3.154,0,0,1-6.307,0v-14.4H821.63v14.493a9.53,9.53,0,0,0,19.059,0V354.25h-6.376Z" transform="translate(-661.686 -354.2)"/><path class="a" d="M468.164.12H461.82V24.066h15.038v-6.32h-8.694Z" transform="translate(-277.992 -0.07)"/><rect class="a" width="6.34" height="23.95" transform="translate(203.37 0.05)"/></svg>