<svg xmlns="http://www.w3.org/2000/svg" width="32" height="32" viewBox="0 0 32 32"><defs><style>.a{fill:#fff;}</style></defs><path class="a" d="M6.556,3A3.559,3.559,0,0,0,3,6.556V31.444A3.559,3.559,0,0,0,6.556,35H31.444A3.559,3.559,0,0,0,35,31.444V6.556A3.559,3.559,0,0,0,31.444,3Zm0,3.556H31.444l0,24.889H23.292V24.4h4.2l.625-4.844h-4.8V16.465c0-1.4.39-2.347,2.4-2.347h2.538V9.8a35.578,35.578,0,0,0-3.719-.184c-3.687,0-6.212,2.25-6.212,6.382v3.566H14.16V24.4h4.167v7.042H6.556Z" transform="translate(-3 -3)"/></svg>