<svg xmlns="http://www.w3.org/2000/svg" width="32" height="32" viewBox="0 0 32 32"><defs><style>.a{fill:#fff;}</style></defs><path class="a" d="M11.889,3A8.9,8.9,0,0,0,3,11.889V26.111A8.9,8.9,0,0,0,11.889,35H26.111A8.9,8.9,0,0,0,35,26.111V11.889A8.9,8.9,0,0,0,26.111,3Zm0,3.556H26.111a5.34,5.34,0,0,1,5.333,5.333V26.111a5.34,5.34,0,0,1-5.333,5.333H11.889a5.34,5.34,0,0,1-5.333-5.333V11.889A5.34,5.34,0,0,1,11.889,6.556Zm16,1.778a1.778,1.778,0,1,0,1.778,1.778A1.778,1.778,0,0,0,27.889,8.333ZM19,10.111A8.889,8.889,0,1,0,27.889,19,8.9,8.9,0,0,0,19,10.111Zm0,3.556A5.333,5.333,0,1,1,13.667,19,5.34,5.34,0,0,1,19,13.667Z" transform="translate(-3 -3)"/></svg>