<svg xmlns="http://www.w3.org/2000/svg" width="32" height="32" viewBox="0 0 32 32"><defs><style>.a{fill:#fff;}</style></defs><path class="a" d="M6.556,3A3.555,3.555,0,0,0,3,6.556V31.444A3.555,3.555,0,0,0,6.556,35H31.444A3.555,3.555,0,0,0,35,31.444V6.556A3.555,3.555,0,0,0,31.444,3Zm0,3.556H31.444V31.444H6.556ZM11.5,8.9a2.175,2.175,0,0,0-2.437,2.135,2.122,2.122,0,0,0,2.285,2.132,2.172,2.172,0,0,0,2.438-2.132A2.125,2.125,0,0,0,11.5,8.9ZM9.181,15.444V27.889h4.486V15.444Zm8.188,0V27.889h4.486v-6.8c0-2.025,1.445-2.316,1.878-2.316s1.594.435,1.594,2.316v6.8h4.34v-6.8c0-3.906-1.736-5.642-3.906-5.642s-3.328.723-3.906,1.736V15.444Z" transform="translate(-3 -3)"/></svg>