<svg xmlns="http://www.w3.org/2000/svg" width="32" height="32" viewBox="0 0 32 32"><defs><style>.a{fill:#fff;}</style></defs><path class="a" d="M6.556,3A3.559,3.559,0,0,0,3,6.556V31.444A3.559,3.559,0,0,0,6.556,35H31.444A3.559,3.559,0,0,0,35,31.444V6.556A3.559,3.559,0,0,0,31.444,3Zm0,3.556H31.444l0,24.889H6.556Zm17.007,3.757a4.424,4.424,0,0,0-4.42,4.42c0,.457.153.762.153,1.066a12.366,12.366,0,0,1-8.99-4.569,3.5,3.5,0,0,0-.611,2.132,5,5,0,0,0,1.983,3.813,7.62,7.62,0,0,1-1.983-.611,4.4,4.4,0,0,0,3.5,4.267,3.343,3.343,0,0,1-1.219.153,6.693,6.693,0,0,0-.764-.153,4.443,4.443,0,0,0,4.115,3.045A9.856,9.856,0,0,1,9.844,25.7H8.778a12.8,12.8,0,0,0,6.7,1.983,12.421,12.421,0,0,0,12.5-12.5V14.58a10.287,10.287,0,0,0,2.135-2.288,8.339,8.339,0,0,1-2.59.764A4.453,4.453,0,0,0,29.5,10.618a7.4,7.4,0,0,1-2.743,1.066A4.148,4.148,0,0,0,23.563,10.313Z" transform="translate(-3 -3)"/></svg>