<svg xmlns="http://www.w3.org/2000/svg" width="28.8" height="32" viewBox="0 0 28.8 32"><defs><style>.a{fill:#fff;}</style></defs><path class="a" d="M7.287,2l2.366,8.55v4.1H11.7v-4.1L14.1,2H12.034l-.859,3.891q-.362,1.7-.466,2.425h-.062q-.151-1.01-.466-2.441L9.353,2Zm9.2,3.228a3.046,3.046,0,0,0-1.681.413,2.4,2.4,0,0,0-.944,1.319,7.817,7.817,0,0,0-.3,2.4V10.7a8.588,8.588,0,0,0,.263,2.366,2.3,2.3,0,0,0,.891,1.312,3.053,3.053,0,0,0,1.725.422,3.033,3.033,0,0,0,1.7-.416,2.327,2.327,0,0,0,.9-1.309,8.246,8.246,0,0,0,.278-2.375V9.356a8.109,8.109,0,0,0-.284-2.387,2.418,2.418,0,0,0-.906-1.319A2.857,2.857,0,0,0,16.491,5.228Zm3.916.181v6.9a3.24,3.24,0,0,0,.434,1.884,1.563,1.563,0,0,0,1.356.6,2.129,2.129,0,0,0,1.991-1.281h.044l.181,1.131h1.628V5.409H23.962V12.75a1.016,1.016,0,0,1-.369.422.91.91,0,0,1-.519.166.47.47,0,0,1-.453-.263,2.064,2.064,0,0,1-.137-.884V5.409Zm-3.963,1.25a.621.621,0,0,1,.612.459,4.473,4.473,0,0,1,.172,1.456v2.878a4.527,4.527,0,0,1-.172,1.478.622.622,0,0,1-.609.453.608.608,0,0,1-.6-.453,4.658,4.658,0,0,1-.166-1.478V8.575a4.486,4.486,0,0,1,.172-1.456A.61.61,0,0,1,16.444,6.659ZM6.2,16.4A3.209,3.209,0,0,0,3,19.6V30.8A3.209,3.209,0,0,0,6.2,34H28.6a3.209,3.209,0,0,0,3.2-3.2V19.6a3.209,3.209,0,0,0-3.2-3.2Zm11.278,3.2h1.691v4.109h.012a1.85,1.85,0,0,1,.65-.719,1.63,1.63,0,0,1,.906-.272,1.377,1.377,0,0,1,.978.331,2.009,2.009,0,0,1,.516,1.069,10.33,10.33,0,0,1,.156,2.05V27.4h0a5.89,5.89,0,0,1-.422,2.562,1.382,1.382,0,0,1-1.309.822,1.817,1.817,0,0,1-.9-.228,1.487,1.487,0,0,1-.613-.625h-.038l-.178.737h-1.45Zm-10.5.394h5.2v1.416H10.438v9.263H8.722V21.409H6.978Zm18.578,2.728a2.449,2.449,0,0,1,1.387.331,1.79,1.79,0,0,1,.681,1.031,7.471,7.471,0,0,1,.2,1.934v1.337H24.884v.4a10.243,10.243,0,0,0,.044,1.125,1.081,1.081,0,0,0,.184.547.52.52,0,0,0,.431.172.546.546,0,0,0,.541-.306,2.629,2.629,0,0,0,.159-1.016l1.516.087a2.528,2.528,0,0,1,.013.281,2.064,2.064,0,0,1-.594,1.616,2.4,2.4,0,0,1-1.672.534,2,2,0,0,1-1.822-.816,4.755,4.755,0,0,1-.522-2.519V26.1a4.728,4.728,0,0,1,.541-2.566A2.064,2.064,0,0,1,25.556,22.722Zm-13.9.15h1.759V28.6a1.732,1.732,0,0,0,.116.744.394.394,0,0,0,.381.222.777.777,0,0,0,.441-.141.86.86,0,0,0,.309-.356v-6.2h1.759v7.8H15.044l-.15-.956h-.041A1.8,1.8,0,0,1,13.172,30.8a1.317,1.317,0,0,1-1.144-.509,2.73,2.73,0,0,1-.372-1.591Zm13.862,1.038a.509.509,0,0,0-.416.166,1.062,1.062,0,0,0-.178.541,10.407,10.407,0,0,0-.044,1.138v.559h1.284v-.559a9.546,9.546,0,0,0-.05-1.138,1.062,1.062,0,0,0-.184-.547A.509.509,0,0,0,25.519,23.909Zm-5.572.056a.669.669,0,0,0-.469.2,1.118,1.118,0,0,0-.306.522v4.428a.779.779,0,0,0,.3.306.818.818,0,0,0,.4.1.539.539,0,0,0,.444-.2,1.437,1.437,0,0,0,.238-.688,9.959,9.959,0,0,0,.069-1.337v-1a13.17,13.17,0,0,0-.056-1.413,1.649,1.649,0,0,0-.2-.709A.478.478,0,0,0,19.947,23.966Z" transform="translate(-3 -2)"/></svg>